<svg xmlns="http://www.w3.org/2000/svg" viewBox="0 0 420.2753 90.3857">
  <title>helix-technologies-logo-reverse-rgb</title>
  <g id="white-rgb">
    <g>
      <path id="fullLogo" d="M126.6236,81.0729a14.095,14.095,0,0,0-.5361-11.9479,14.1192,14.1192,0,0,0-4.3164-4.8574l-.8357-.5863.5953-.8288a14.5,14.5,0,0,0,1.9236-3.75,13.2606,13.2606,0,0,0,.7036-4.3321,13.5348,13.5348,0,0,0-1.0722-5.4546,14.47,14.47,0,0,0-2.9367-4.3893,13.63,13.63,0,0,0-9.7207-4.0316H88.604v48.56h6.6519V68.5h18.7122a7.0556,7.0556,0,0,1,7.0777,7.08,6.95,6.95,0,0,1-2.0655,5.157,6.85,6.85,0,0,1-5.0122,2.0665H103.7409l-2.6608,6.652h12.888a13.2891,13.2891,0,0,0,5.3078-1.0742,14.3113,14.3113,0,0,0,4.3893-2.9367A13.4974,13.4974,0,0,0,126.6236,81.0729ZM117.506,54.7706a7.0542,7.0542,0,0,1-7.0777,7.0777H95.2559V47.5471h15.1724a7.0507,7.0507,0,0,1,7.0777,7.0776Z" style="fill: #fff"/>
      <rect id="fullLogo-2" data-name="fullLogo" x="134.7735" y="40.9661" width="6.6539" height="48.4893" style="fill: #fff"/>
      <path id="fullLogo-3" data-name="fullLogo" d="M191.3259,82.9946a25.56,25.56,0,0,0,5.42-8.0661,25.3829,25.3829,0,0,0,0-19.6514,25.2386,25.2386,0,0,0-13.4872-13.4882,25.3981,25.3981,0,0,0-19.6523,0,25.2563,25.2563,0,0,0-13.4872,13.4882,25.3829,25.3829,0,0,0,0,19.6514,25.3046,25.3046,0,0,0,41.2066,8.0661Zm-17.8923.747a18.6628,18.6628,0,0,1-7.1033-1.3758,18.3542,18.3542,0,0,1-6.039-4.05,18.6757,18.6757,0,0,1-4.0838-6.07,18.4689,18.4689,0,0,1-1.4131-7.1437,18.23,18.23,0,0,1,1.4151-7.1112,18.6078,18.6078,0,0,1,30.4374-6.0291,18.3692,18.3692,0,0,1,4.05,6.039,18.6616,18.6616,0,0,1,1.3757,7.1013,18.95,18.95,0,0,1-1.3737,7.1348,18.6145,18.6145,0,0,1-10.1327,10.13A18.9074,18.9074,0,0,1,173.4336,83.7416Z" style="fill: #fff"/>
      <polygon id="fullLogo-4" data-name="fullLogo" points="200.237 47.547 215.121 47.547 215.121 89.455 221.773 89.455 221.773 47.547 236.587 47.547 236.587 40.895 200.237 40.895 200.237 47.547" style="fill: #fff"/>
      <path id="fullLogo-5" data-name="fullLogo" d="M267.8815,73.5153a16.8816,16.8816,0,0,0,3.9794-2.6273,17.1908,17.1908,0,0,0,3.0687-3.5822,17.6159,17.6159,0,0,0,1.9848-4.3341,16.9042,16.9042,0,0,0,.7233-4.953,16.3491,16.3491,0,0,0-1.37-6.6372,18.2508,18.2508,0,0,0-3.6876-5.4486,17.83,17.83,0,0,0-5.44-3.6818,16.14,16.14,0,0,0-6.6381-1.3471H242.58V89.4632h6.66V75.2143h10.44l9.1827,14.2489h7.933l-9.9533-15.4561ZM249.24,68.5741v-21.03h11.262a10.1918,10.1918,0,0,1,7.4344,3.121,10.4693,10.4693,0,0,1,2.2351,3.3486,10.3759,10.3759,0,0,1,0,8.01,11.25,11.25,0,0,1-2.2193,3.4127,10.21,10.21,0,0,1-7.45,3.1377Z" style="fill: #fff"/>
      <polygon id="fullLogo-6" data-name="fullLogo" points="335.166 89.455 313.243 40.895 305.01 40.895 283.089 89.455 290.411 89.455 294.312 80.785 314.358 80.785 311.365 74.131 297.304 74.131 309.128 47.986 327.844 89.455 335.166 89.455" style="fill: #fff"/>
      <path id="fullLogo-7" data-name="fullLogo" d="M373.1322,79.0074a18.1928,18.1928,0,0,1-5.3137,3.3584,19.2938,19.2938,0,0,1-14.2756,0,18.2932,18.2932,0,0,1-6.039-4.05,18.52,18.52,0,0,1-5.4989-13.2132,18.2167,18.2167,0,0,1,1.4171-7.1112,18.571,18.571,0,0,1,29.7061-6.7249l4.7185-4.7184a25.9217,25.9217,0,0,0-7.3418-4.76,25.4873,25.4873,0,0,0-19.6858.001,25.2386,25.2386,0,0,0-13.4872,13.4882,25.38,25.38,0,0,0,0,19.65,25.3211,25.3211,0,0,0,33.173,13.4911,25.9159,25.9159,0,0,0,7.3359-4.7559Z" style="fill: #fff"/>
      <polygon id="fullLogo-8" data-name="fullLogo" points="420.275 89.599 395.922 65.246 420.131 41.039 410.702 41.039 390.199 61.541 390.199 40.966 383.547 40.966 383.547 89.455 390.199 89.455 390.199 68.954 410.846 89.599 420.275 89.599" style="fill: #fff"/>
      <polygon id="fullLogo-9" data-name="fullLogo" points="108.964 12.376 97.262 12.376 97.262 0 89.696 0 89.696 31.128 97.262 31.128 97.262 14.465 99.698 19.262 108.964 19.262 108.964 31.128 116.444 31.128 116.444 0 108.964 0 108.964 12.376" style="fill: #fff"/>
      <polygon id="fullLogo-10" data-name="fullLogo" points="119.766 31.128 141.156 31.128 141.156 24.669 126.226 24.669 126.226 18.794 138.794 18.794 137.18 12.335 126.226 12.335 126.226 6.459 141.156 6.459 141.156 0 119.766 0 119.766 31.128" style="fill: #fff"/>
      <polygon id="fullLogo-11" data-name="fullLogo" points="150.725 0.042 144.265 0.042 144.265 31.128 162.423 31.128 162.423 24.669 150.725 24.669 150.725 0.042" style="fill: #fff"/>
      <rect id="fullLogo-12" data-name="fullLogo" x="166.2116" y="0.0418" width="6.4608" height="31.0865" style="fill: #fff"/>
      <polygon id="fullLogo-13" data-name="fullLogo" points="205.872 31.128 195.022 15.522 205.785 0 196.835 0 190.622 10.22 184.369 0 175.466 0 189.614 20.504 184.534 17.924 175.378 31.128 184.258 31.128 190.625 21.969 196.945 31.128 205.872 31.128" style="fill: #fff"/>
      <g id="logoMark">
        <path id="logoMark_PathItem_" data-name="logoMark &lt;PathItem&gt;" d="M61.8876,16.0872a37.3169,37.3169,0,0,0-8.8141-6.0918A36.7491,36.7491,0,0,0,.075,40.4828a37.7645,37.7645,0,0,0,.1635,6.5779C.8277,52.4028,1.3068,55.7086,3.221,59.17a1.2482,1.2482,0,0,0,2.2074-1.164c-1.6447-3.3974-2.0578-6.6185-2.5048-11.6643C1.7207,32.765,10.5861,11.0936,39.115,9.7305,18.2665,10.7267,7.2719,29.0674,6.5116,40.4374a2.34,2.34,0,0,0,.34,1.4209,2.1878,2.1878,0,0,0,1.36.8531,27.1922,27.1922,0,0,0,4.0042.7857,35.3145,35.3145,0,0,0,4.1681.3487c.53.012,1.06.01,1.59-.0033q1.5113-.0413,3.0143-.2233.85-.1036,1.6929-.2575c8.025-1.7368,11.784-7.7985,15.4194-13.6608,4.4575-7.1881,9.0626-14.6122,21.3826-12.3821q.7752.13,1.5944.3143A.9044.9044,0,0,0,61.8876,16.0872Z" style="fill: #fff;fill-rule: evenodd"/>
        <path id="logoMark_PathItem_2" data-name="logoMark &lt;PathItem&gt;" d="M34.9433,77.9352c20.8479-.9962,31.8425-19.3359,32.6033-30.706a2.5639,2.5639,0,0,0-1.87-2.6369c-6.0063-1.6752-10.7041-1.9337-14.49-1.2339C32.1748,47.4589,35.695,75.172,12.98,70.0325a.9039.9039,0,0,0-.81,1.5455A37.316,37.316,0,0,0,20.9849,77.67,36.749,36.749,0,0,0,73.9833,47.1828,37.7633,37.7633,0,0,0,73.82,40.605c-.5891-5.3415-1.0682-8.6472-2.9818-12.1079A1.2483,1.2483,0,0,0,68.63,29.661c1.6443,3.397,2.0574,6.618,2.5044,11.6633,1.2028,13.5764-7.6626,35.2477-36.1915,36.6109" style="fill: #fff;fill-rule: evenodd"/>
        <path id="logoMark_PathItem_3" data-name="logoMark &lt;PathItem&gt;" d="M33.161,55.7485c3.9526-6.3927,8.0395-13.003,16.8773-14.909l.0141-.0015.014-.0041a26.7555,26.7555,0,0,1,8.0777-.1479,20.7584,20.7584,0,0,0-13.62-15.3476A51.4337,51.4337,0,0,0,39.74,32.2215c-2.4283,3.9157-5.0714,8.1774-9.14,11.1648a19.433,19.433,0,0,1-7.5257,3.3679l-.0281.0057a33.1636,33.1636,0,0,1-5.8036.5258A20.766,20.766,0,0,0,27.9578,63.1975,51.9277,51.9277,0,0,0,33.161,55.7485Z" style="fill: #fff;fill-rule: evenodd"/>
      </g>
    </g>
  </g>
</svg>
